<svg xmlns="http://www.w3.org/2000/svg" viewBox="0 0 32 40" x="0px" y="0px"><g><path d="M26,17.71V27a3,3,0,0,1-3,3H5a3,3,0,0,1-3-3V11A3,3,0,0,1,5,8h6.35a12.2392,12.2392,0,0,0-1.9623,2H5a1,1,0,0,0-1,1V27a1,1,0,0,0,1,1H23a1,1,0,0,0,1-1V19.71Zm3.707-7.9494L22.2393,2.293A1.0066,1.0066,0,0,0,20.5322,3V6.3208C10.1009,7.9189,6.7185,15.4884,10.1572,23.75a1.0046,1.0046,0,0,0,1.9258-.2817c.28-3.0972,4.5465-8.6908,8.4492-8.8526v3.32a1.0066,1.0066,0,0,0,1.7071.7071l7.4677-7.4678A1,1,0,0,0,29.707,9.7607Z"/></g><text x="0" y="47" fill="#000000" font-size="5px" font-weight="bold" font-family="'Helvetica Neue', Helvetica, Arial-Unicode, Arial, Sans-serif">Created by Anconer Design</text><text x="0" y="52" fill="#000000" font-size="5px" font-weight="bold" font-family="'Helvetica Neue', Helvetica, Arial-Unicode, Arial, Sans-serif">from the Noun Project</text></svg>