<svg xmlns="http://www.w3.org/2000/svg" xmlns:xlink="http://www.w3.org/1999/xlink" viewBox="0 0 48 60" version="1.1" x="0px" y="0px"><title>4.4</title><desc>Created with Sketch.</desc><g stroke="none" stroke-width="1" fill="none" fill-rule="evenodd"><g fill="#000000"><g><path d="M44,44 L44,27.991155 C44,26.8914705 44.8877296,26 46,26 C47.1045695,26 48,26.8896739 48,27.991155 L48,46.008845 C48,47.1085295 47.1122704,48 46,48 C45.9997684,48 45.9995369,48 45.9993053,47.9999999 C45.9990739,48 45.9988423,48 45.9986107,48 L2.00138927,48 C2.0011577,48 2.00092615,48 2.00069461,47.9999999 C2.00046312,48 2.00023156,48 2,48 C1.4479464,48 0.948133794,47.7764526 0.58624095,47.4146789 C0.223825497,47.0557163 0,46.5559022 0,46 C0,45.9997684 3.93317783e-08,45.9995369 1.17989038e-07,45.9993053 C3.92197399e-08,45.9990739 0,45.9988423 0,45.9986107 L0,2.00138927 C0,2.0011577 3.89608083e-08,2.00092615 1.16876327e-07,2.00069461 C3.86390828e-08,2.00046312 0,2.00023156 0,2 C0,0.8954305 0.889673948,-3.87790398e-15 1.991155,-3.6755652e-15 L20.008845,-3.65769239e-16 C21.1085295,-1.63760467e-16 22,0.887729645 22,2 C22,3.1045695 21.1103261,4 20.008845,4 L4,4 L4,44 L44,44 Z M44,6.82842712 L18.2755593,32.5528679 C17.492588,33.3358391 16.2301447,33.3428431 15.4436508,32.5563492 C14.6626022,31.7753006 14.6650238,30.5065491 15.4471321,29.7244407 L41.1715729,4 L33.9940603,4 C32.8927712,4 32,3.11227036 32,2 C32,0.8954305 32.8945138,0 33.9940603,0 L46.0059397,0 C46.5556041,0 47.0533244,0.221143009 47.4140249,0.580972315 C47.7769435,0.947557799 48,1.44527166 48,1.99406028 L48,14.0059397 C48,15.1072288 47.1122704,16 46,16 C44.8954305,16 44,15.1054862 44,14.0059397 L44,6.82842712 Z"/></g></g></g><text x="0" y="63" fill="#000000" font-size="5px" font-weight="bold" font-family="'Helvetica Neue', Helvetica, Arial-Unicode, Arial, Sans-serif">Created by Тимур Минвалеев</text><text x="0" y="68" fill="#000000" font-size="5px" font-weight="bold" font-family="'Helvetica Neue', Helvetica, Arial-Unicode, Arial, Sans-serif">from the Noun Project</text></svg>