<svg xmlns="http://www.w3.org/2000/svg" data-name="Layer 1" viewBox="0 0 64 80" x="0px" y="0px"><title>Untitled-3</title><path d="M32,7.66A24.34,24.34,0,1,0,56.34,32,24.37,24.37,0,0,0,32,7.66ZM42.63,46.72a4.48,4.48,0,0,1-8.37-2.65l-13-7.19a4.48,4.48,0,0,1-7.16-2.6,4.39,4.39,0,0,1-.1-.92,4.28,4.28,0,0,1,0-.49A4.48,4.48,0,0,1,20.9,29.6l13.42-9.24a4.48,4.48,0,1,1,2,2.85L22.86,32.45a4.51,4.51,0,0,1,.09.91,4.28,4.28,0,0,1,0,.49l13,7.19a4.48,4.48,0,0,1,6.7,5.68Z"/><text x="0" y="79" fill="#000000" font-size="5px" font-weight="bold" font-family="'Helvetica Neue', Helvetica, Arial-Unicode, Arial, Sans-serif">Created by Abdullah Al Noman</text><text x="0" y="84" fill="#000000" font-size="5px" font-weight="bold" font-family="'Helvetica Neue', Helvetica, Arial-Unicode, Arial, Sans-serif">from the Noun Project</text></svg>