<svg xmlns="http://www.w3.org/2000/svg" xmlns:xlink="http://www.w3.org/1999/xlink" version="1.1" x="0px" y="0px" viewBox="0 0 20 25" enable-background="new 0 0 20 20" xml:space="preserve"><g><path d="M5,16h10c0.6,0,1-0.4,1-1c0-0.6-0.4-1-1-1H5c-0.6,0-1,0.4-1,1C4,15.5,4.4,16,5,16z"/><path d="M10,11h5c0.6,0,1-0.4,1-1s-0.4-1-1-1h-5c-0.6,0-1,0.4-1,1S9.4,11,10,11z"/><rect x="4" y="8" width="3" height="4"/><path d="M19,0H1C0.4,0,0,0.4,0,1v18c0,0.5,0.4,1,1,1h18c0.5,0,1-0.5,1-1V1C20,0.4,19.5,0,19,0z M7,2c0.6,0,1,0.4,1,1   c0,0.6-0.4,1-1,1S6,3.5,6,3C6,2.4,6.4,2,7,2z M3,2c0.5,0,1,0.4,1,1c0,0.6-0.5,1-1,1S2,3.5,2,3C2,2.4,2.5,2,3,2z M18,18H2V6h16V18z"/></g><text x="0" y="35" fill="#000000" font-size="5px" font-weight="bold" font-family="'Helvetica Neue', Helvetica, Arial-Unicode, Arial, Sans-serif">Created by ProSymbols</text><text x="0" y="40" fill="#000000" font-size="5px" font-weight="bold" font-family="'Helvetica Neue', Helvetica, Arial-Unicode, Arial, Sans-serif">from the Noun Project</text></svg>